<?xml version="1.0" encoding="utf-8"?>
<!-- Generator: Adobe Illustrator 26.0.0, SVG Export Plug-In . SVG Version: 6.00 Build 0)  -->
<svg version="1.1" id="Layer_1" xmlns="http://www.w3.org/2000/svg" xmlns:xlink="http://www.w3.org/1999/xlink" x="0px" y="0px"
	 viewBox="0 0 100 100" style="enable-background:new 0 0 100 100;" xml:space="preserve">
<style type="text/css">
	.st0{fill:#E5E5E5;}
</style>
<g>
	<path class="st0" d="M67.3,0c1.7,0.1,3.4,0.3,5,0.4c1.2,0.1,2.3,0.2,3.5,0.3c0,5.3,0,10.5,0,15.9c-0.4,0-0.7,0-1.1,0
		c-3.4,0-6.9,0-10.3,0.2c-4.2,0.2-6.5,2.5-6.7,6.7c-0.2,4.3-0.1,8.5-0.1,12.8c0,0.1,0,0.2,0.1,0.4c5.8,0,11.5,0,17.4,0
		c-0.8,6-1.5,11.8-2.3,17.8c-5.1,0-10.1,0-15.2,0c0,0.4-0.1,0.7-0.1,0.9c0,14.7,0,29.3,0,44c0,0.2,0,0.5,0,0.7c-6.1,0-12.2,0-18.3,0
		c0-0.4,0-0.8,0-1.3c0-14.3,0-28.6,0-43c0-0.4,0-0.8,0-1.4c-5.1,0-10.2,0-15.3,0c0-6,0-11.8,0-17.8c5,0,10.1,0,15.3,0
		c0-0.5,0-0.9,0-1.3c0-4.7-0.1-9.3,0.1-14c0.2-5.6,1.9-10.7,5.8-14.9c3-3.2,6.7-5,11-5.9c1.1-0.2,2.3-0.4,3.4-0.6
		C62.3,0,64.8,0,67.3,0z"/>
</g>
</svg>
