<?xml version="1.0" encoding="utf-8"?>
<!-- Generator: Adobe Illustrator 26.0.0, SVG Export Plug-In . SVG Version: 6.00 Build 0)  -->
<svg version="1.1" id="Layer_1" xmlns="http://www.w3.org/2000/svg" xmlns:xlink="http://www.w3.org/1999/xlink" x="0px" y="0px"
	 viewBox="0 0 100 100" style="enable-background:new 0 0 100 100;" xml:space="preserve">
<style type="text/css">
	.st0{fill:#E5E5E5;}
</style>
<g>
	<path class="st0" d="M13.5,0c0.5,0.3,1.1,0.2,1.6,0.4c5.5,1.5,9.3,6.9,8.9,12.6c-0.5,6-5.2,10.7-11.3,11.1
		C7.1,24.5,1.8,20.5,0.4,15c-0.1-0.4,0-0.8-0.4-1.2c0-1.3,0-2.6,0-3.9c0.4-0.1,0.3-0.5,0.3-0.7c1.2-4.3,3.9-7.2,8-8.7
		C8.9,0.4,9.5,0.4,10,0C11.1,0,12.3,0,13.5,0z"/>
	<path class="st0" d="M55.3,42.3c0.4,0,0.4-0.2,0.5-0.4c3.5-5.8,8.8-9,15.3-10c4.7-0.8,9.4-0.4,14,1C91.9,35,96,39.8,98,46.5
		c1.4,4.5,1.9,9.2,1.9,13.9c0.1,12.9,0,25.9,0.1,38.8c0,0.6-0.1,0.8-0.7,0.8c-6.4,0-12.8,0-19.2,0c-0.8,0-0.8-0.4-0.8-0.9
		c0-11.4,0-22.7,0-34.1c0-2.9-0.2-5.7-1.1-8.5c-1.4-4.2-4.2-6.4-8.7-6.7c-1.7-0.1-3.3,0-4.9,0.5c-4.5,1.2-6.7,4.3-7.7,8.6
		c-0.6,2.3-0.8,4.7-0.8,7.1c0,11,0,22.1,0,33.1c0,0.8-0.2,1-1,1c-6.3,0-12.6,0-18.8,0c-0.7,0-0.9-0.2-0.9-0.9c0-21.6,0-43.3,0-64.9
		c0-0.8,0.3-1,1-1c6,0,12,0,18,0c0.8,0,1,0.2,1,1c0,2.4,0,4.8,0,7.2C55.3,41.7,55.3,42,55.3,42.3z"/>
	<path class="st0" d="M22.4,66.7c0,10.8,0,21.5,0,32.3c0,0.8-0.2,1-1,1c-6.3,0-12.6,0-18.8,0c-0.8,0-0.9-0.2-0.9-1
		c0-21.6,0-43.2,0-64.8c0-0.8,0.2-1,1-1c6.2,0,12.5,0,18.7,0c0.9,0,1,0.3,1,1.1C22.4,45.1,22.4,55.9,22.4,66.7z"/>
</g>
</svg>
